<svg width="19" height="18" viewBox="0 0 19 18" fill="none" xmlns="http://www.w3.org/2000/svg">
<path d="M4.05664 5.10066L12.3466 2.40066C12.9066 2.22066 13.4866 2.64066 13.4866 3.23066V5.27066" stroke="#5ACA93" stroke-width="2" stroke-miterlimit="10"/>
<path d="M15.2461 14.7705V6.31053C15.2461 5.64779 14.7088 5.11053 14.0461 5.11053L3.83609 5.11053C3.17335 5.11053 2.63609 5.64779 2.63609 6.31053V14.7705C2.63609 15.4333 3.17335 15.9705 3.83609 15.9705H14.0461C14.7088 15.9705 15.2461 15.4333 15.2461 14.7705Z" stroke="#5ACA93" stroke-width="2" stroke-miterlimit="10"/>
<path d="M16.7392 11.3006V9.76059C16.7392 9.43474 16.5182 9.17059 16.2456 9.17059H14.5894C14.3168 9.17059 14.0959 9.43474 14.0959 9.76059V11.3006C14.0959 11.6264 14.3168 11.8906 14.5894 11.8906H16.2456C16.5182 11.8906 16.7392 11.6264 16.7392 11.3006Z" stroke="#5ACA93" stroke-width="2" stroke-miterlimit="10"/>
<path d="M6.22656 10.3207L7.60656 11.7007C7.85656 11.9507 8.24656 11.9507 8.49656 11.7007L11.6466 8.55072" stroke="#5ACA93" stroke-width="1.8" stroke-miterlimit="10" stroke-linecap="round"/>
</svg>
